<?xml version="1.0" encoding="UTF-8" standalone="no"?>
<svg
   xmlns:dc="http://purl.org/dc/elements/1.1/"
   xmlns:cc="http://creativecommons.org/ns#"
   xmlns:rdf="http://www.w3.org/1999/02/22-rdf-syntax-ns#"
   xmlns:svg="http://www.w3.org/2000/svg"
   xmlns="http://www.w3.org/2000/svg"
   viewBox="0 0 1052.3625 744.09998"
   height="744.09998"
   width="1052.3625"
   xml:space="preserve"
   version="1.1"
   id="svg2"><metadata
     id="metadata8"><rdf:RDF><cc:Work
         rdf:about=""><dc:format>image/svg+xml</dc:format><dc:type
           rdf:resource="http://purl.org/dc/dcmitype/StillImage" /></cc:Work></rdf:RDF></metadata><defs
     id="defs6" /><g
     transform="matrix(1.25,0,0,-1.25,0,744.1)"
     id="g10"><g
       transform="scale(0.1,0.1)"
       id="g12"><path
         id="path14"
         style="fill:#3660b4;fill-opacity:1;fill-rule:nonzero;stroke:none"
         d="m 3013.75,2461.47 c -29.6,0 -54.38,-6.72 -74.43,-20.27 -20.02,-13.5 -36.42,-30.88 -48.99,-52.19 -12.66,-21.42 -21.61,-44.98 -26.88,-70.57 -5.1,-25.74 -7.79,-51.21 -7.79,-76.48 0,-24.34 2.69,-49.18 7.79,-74.51 5.27,-25.22 13.76,-48.11 25.6,-68.56 11.72,-20.39 27.62,-37.16 47.58,-50.29 20.11,-13.01 44.46,-19.59 73.18,-19.59 44.5,0 78.66,12.5 102.64,37.23 23.9,24.84 38.98,58.16 45.08,99.98 l 178.93,0 c -12.17,-89.67 -47.03,-158.09 -104.53,-205.16 -57.47,-46.99 -131.01,-70.49 -220.78,-70.49 -50.53,0 -96.95,8.48 -139.13,25.45 -42.21,16.98 -78.19,40.78 -107.79,71.17 -29.7,30.45 -52.68,66.9 -69.22,109.09 -16.54,42.16 -24.84,88.69 -24.84,139.27 0,52.13 7.59,100.67 22.92,145.59 15.13,44.86 37.56,83.55 67.23,116.21 29.6,32.72 65.71,58.24 108.4,76.49 42.7,18.26 91.47,27.46 146.41,27.46 40.01,0 78.49,-5.24 115.6,-15.75 36.97,-10.37 70.1,-26.25 99.25,-47.67 29.18,-21.29 52.86,-47.85 71.2,-79.65 18.31,-31.74 28.75,-69.53 31.41,-113.05 l -181.65,0 c -12.15,77.52 -57.9,116.29 -137.19,116.29" /><path
         id="path16"
         style="fill:#ef4625;fill-opacity:1;fill-rule:nonzero;stroke:none"
         d="m 3517.12,2582.94 0,-91.45 2.59,0 c 24.35,34.86 53.72,61.84 88.14,81.06 34.4,19.12 73.83,28.75 118.2,28.75 42.7,0 81.7,-8.36 116.89,-24.85 35.31,-16.52 62.11,-45.7 80.45,-87.58 19.99,29.67 47.24,55.79 81.61,78.44 34.48,22.64 75.14,33.99 122.17,33.99 35.67,0 68.76,-4.4 99.36,-13.11 30.49,-8.61 56.59,-22.66 78.32,-41.7 21.79,-19.22 38.75,-44.32 50.97,-75.19 12.18,-30.96 18.31,-68.13 18.31,-111.76 l 0,-452.07 -185.53,0 0,382.91 c 0,22.58 -0.89,43.88 -2.62,63.96 -1.77,20.08 -6.47,37.42 -14.41,52.31 -7.84,14.84 -19.31,26.56 -34.64,35.29 -15.1,8.59 -35.89,12.99 -61.98,12.99 -26.12,0 -47.27,-5 -63.36,-15.02 -16.14,-10.06 -28.78,-23.07 -37.94,-39.18 -9.15,-16.11 -15.19,-34.49 -18.28,-54.81 -3.05,-20.44 -4.54,-41.21 -4.54,-62.14 l 0,-376.31 -185.47,0 0,378.94 c 0,20.08 -0.49,39.79 -1.4,59.51 -0.85,19.54 -4.52,37.6 -11.11,54.2 -6.47,16.55 -17.46,29.73 -32.6,39.79 -15.32,10.02 -37.75,15.02 -67.29,15.02 -8.73,0 -20.26,-1.95 -34.64,-5.86 -14.43,-3.91 -28.39,-11.35 -41.85,-22.15 -13.48,-10.94 -24.99,-26.56 -34.6,-47.07 -9.58,-20.51 -14.38,-47.3 -14.38,-80.31 l 0,-392.07 -185.5,0 0,675.47 175.13,0" /><path
         id="path18"
         style="fill:#3660b4;fill-opacity:1;fill-rule:nonzero;stroke:none"
         d="m 4717.71,2461.47 c -29.59,0 -54.41,-6.72 -74.4,-20.27 -20.08,-13.5 -36.44,-30.88 -49.01,-52.19 -12.64,-21.42 -21.61,-44.98 -26.83,-70.57 -5.22,-25.74 -7.75,-51.21 -7.75,-76.48 0,-24.34 2.53,-49.18 7.75,-74.51 5.22,-25.22 13.73,-48.11 25.51,-68.56 11.79,-20.39 27.65,-37.16 47.7,-50.29 20.02,-13.01 44.41,-19.59 73.13,-19.59 44.43,0 78.58,12.5 102.55,37.23 23.98,24.84 38.96,58.16 45.13,99.98 l 178.97,0 c -12.27,-89.67 -47.03,-158.09 -104.53,-205.16 -57.53,-46.99 -131.09,-70.49 -220.81,-70.49 -50.54,0 -96.87,8.48 -139.1,25.45 -42.31,16.98 -78.23,40.78 -107.87,71.17 -29.62,30.45 -52.7,66.9 -69.24,109.09 -16.54,42.16 -24.78,88.69 -24.78,139.27 0,52.13 7.6,100.67 22.89,145.59 15.14,44.86 37.63,83.55 67.23,116.21 29.64,32.72 65.77,58.24 108.44,76.49 42.63,18.26 91.46,27.46 146.36,27.46 40.11,0 78.57,-5.24 115.65,-15.75 36.99,-10.37 70.01,-26.25 99.27,-47.67 29.21,-21.29 52.9,-47.85 71.21,-79.65 18.25,-31.74 28.72,-69.53 31.37,-113.05 l -181.65,0 c -12.18,77.52 -57.9,116.29 -137.19,116.29" /><path
         id="path20"
         style="fill:#3660b4;fill-opacity:1;fill-rule:nonzero;stroke:none"
         d="m 5378.52,2461.47 c -29.6,0 -54.39,-6.72 -74.47,-20.27 -19.99,-13.5 -36.34,-30.88 -48.98,-52.19 -12.61,-21.42 -21.52,-44.98 -26.77,-70.57 -5.18,-25.74 -7.81,-51.21 -7.81,-76.48 0,-24.34 2.63,-49.18 7.81,-74.51 5.25,-25.22 13.7,-48.11 25.49,-68.56 11.78,-20.39 27.62,-37.16 47.67,-50.29 20.08,-13.01 44.47,-19.59 73.18,-19.59 44.44,0 78.59,12.5 102.58,37.23 23.92,24.84 38.97,58.16 45.07,99.98 l 179,0 c -12.24,-89.67 -47.09,-158.09 -104.56,-205.16 -57.46,-46.99 -131.08,-70.49 -220.77,-70.49 -50.61,0 -96.94,8.48 -139.14,25.45 -42.21,16.98 -78.26,40.78 -107.8,71.17 -29.64,30.45 -52.73,66.9 -69.24,109.09 -16.58,42.16 -24.85,88.69 -24.85,139.27 0,52.13 7.66,100.67 22.86,145.59 15.27,44.86 37.66,83.55 67.33,116.21 29.57,32.72 65.74,58.24 108.43,76.49 42.67,18.26 91.47,27.46 146.34,27.46 40.01,0 78.56,-5.24 115.64,-15.75 36.99,-10.37 70.05,-26.25 99.25,-47.67 29.15,-21.29 52.89,-47.85 71.24,-79.65 18.25,-31.74 28.71,-69.53 31.36,-113.05 l -181.62,0 c -12.21,77.52 -58.02,116.29 -137.24,116.29" /><path
         id="path22"
         style="fill:#3660b4;fill-opacity:1;fill-rule:nonzero;stroke:none"
         d="m 4276.46,4474.38 c -424.79,49.88 -811.04,-255.14 -860.97,-680.09 -14.06,-119.01 2.42,-234.15 39.01,-340.58 -11.08,127.31 15.93,255.07 80.14,368.67 84.2,149.29 225.84,280.23 390.93,326.36 281.78,78.19 707.59,-50.28 668.98,-444.95 -11.2,-115.2 -128.7,-200.21 -214.79,-201.02 -115.8,-0.9 -218.07,85.23 -218.07,201.02 0,85.31 51.16,158.31 124.29,191.09 -86.9,68.67 -204,96.76 -318.85,64.89 -120.94,-33.7 -221.38,-112.36 -283.09,-221.8 -61.77,-109.1 -77.16,-235.8 -43.5,-356.9 43.74,-156.64 145.4,-286.94 287.25,-366.65 141.49,-79.9 305.93,-99.86 462.29,-56.52 305.8,85.19 517.12,342.18 562.28,637.07 0.92,6.27 2.93,11.66 3.72,17.75 0.52,2.56 -0.11,5.63 0.38,8.46 45.41,421.72 -257.81,803.64 -680,853.2" /></g></g></svg>