<?xml version="1.0" standalone="no"?>
<!DOCTYPE svg PUBLIC "-//W3C//DTD SVG 20010904//EN"
 "http://www.w3.org/TR/2001/REC-SVG-20010904/DTD/svg10.dtd">
<svg version="1.0" xmlns="http://www.w3.org/2000/svg"
 width="400.000000pt" height="282.000000pt" viewBox="0 0 400.000000 282.000000"
 preserveAspectRatio="xMidYMid meet">
<metadata>
Created by potrace 1.13, written by Peter Selinger 2001-2015
</metadata>
<g transform="translate(0.000000,282.000000) scale(0.100000,-0.100000)"
fill="#000000" stroke="none">
<path d="M1859 2097 c-69 -29 -107 -55 -149 -104 -69 -78 -102 -194 -85 -299
l8 -49 13 63 c32 154 153 263 293 263 75 1 131 -16 177 -54 44 -37 64 -81 64
-143 0 -39 -5 -51 -35 -81 -32 -32 -39 -35 -78 -30 -82 11 -114 93 -62 156
l26 30 -32 17 c-23 11 -48 15 -86 12 -72 -6 -128 -46 -166 -118 -25 -47 -28
-63 -24 -112 16 -187 211 -306 390 -238 89 33 155 93 199 177 47 91 56 161 34
250 -42 170 -169 273 -346 280 -72 3 -94 0 -141 -20z"/>
<path d="M1350 1211 c-55 -29 -82 -83 -77 -158 5 -102 64 -158 165 -157 60 1
93 20 130 74 l22 33 0 -52 0 -52 43 3 42 3 3 110 c3 121 13 145 63 145 41 0
49 -24 49 -149 l0 -111 45 0 45 0 0 113 c0 125 9 147 63 147 39 0 47 -26 47
-149 l0 -111 45 0 45 0 0 53 0 52 19 -30 c26 -43 51 -62 98 -74 78 -21 173 23
190 87 5 23 7 22 27 -14 29 -52 77 -78 141 -78 81 2 133 39 151 108 6 25 4 26
-35 26 -35 0 -43 -4 -56 -30 -27 -53 -93 -52 -121 2 -20 39 -14 110 11 138 26
29 79 26 103 -5 16 -20 29 -25 62 -25 38 0 41 2 35 23 -19 63 -72 97 -153 97
-56 0 -104 -26 -137 -76 l-20 -30 -15 30 c-49 101 -219 102 -276 2 l-21 -36
-12 40 c-21 70 -120 96 -177 46 -28 -23 -28 -23 -44 -4 -25 31 -100 36 -145
10 -28 -17 -35 -18 -35 -7 0 11 -12 15 -40 15 l-40 0 0 -47 0 -48 -20 33 c-42
69 -144 94 -220 53z m136 -76 c13 -20 24 -25 60 -25 l44 0 0 -40 0 -40 -42 0
c-37 -1 -46 -5 -63 -33 -44 -69 -125 -31 -125 58 0 75 22 105 77 105 24 0 37
-7 49 -25z m809 -2 c8 -19 18 -23 55 -23 l46 0 -4 -40 c-4 -39 -5 -40 -41 -40
-30 -1 -40 -6 -56 -33 -44 -69 -125 -31 -125 58 0 46 13 83 34 98 6 4 27 6 46
5 25 -2 38 -9 45 -25z"/>
</g>
</svg>
